<mxfile host="Electron" modified="2024-02-26T17:43:50.359Z" agent="Mozilla/5.0 (Windows NT 10.0; Win64; x64) AppleWebKit/537.36 (KHTML, like Gecko) draw.io/23.1.5 Chrome/120.0.6099.109 Electron/28.1.0 Safari/537.36" etag="sapbGGcRt4gxZIV4zewk" version="23.1.5" type="device" pages="2">
  <diagram name="modele_relationnnel" id="K22IMhGTIvqdRt6gtKjN">
    <mxGraphModel dx="665" dy="614" grid="1" gridSize="10" guides="1" tooltips="1" connect="1" arrows="1" fold="1" page="1" pageScale="1" pageWidth="827" pageHeight="1169" math="0" shadow="0">
      <root>
        <mxCell id="0" />
        <mxCell id="1" parent="0" />
        <mxCell id="CQKy-OLcfSeAjiSryRfV-1" value="etudiant" style="swimlane;childLayout=stackLayout;horizontal=1;startSize=50;horizontalStack=0;rounded=1;fontSize=14;fontStyle=0;strokeWidth=2;resizeParent=0;resizeLast=1;shadow=0;dashed=0;align=center;arcSize=4;whiteSpace=wrap;html=1;" vertex="1" parent="1">
          <mxGeometry x="40" y="70" width="160" height="180" as="geometry" />
        </mxCell>
        <mxCell id="CQKy-OLcfSeAjiSryRfV-2" value="&lt;u&gt;IUC&lt;/u&gt;&lt;br&gt;et_nom&lt;br&gt;et_prenom&lt;br&gt;et_dateN&lt;div&gt;et_paysOrig&lt;/div&gt;&lt;div&gt;et_numeroTel&lt;/div&gt;&lt;div&gt;et_numPassport&lt;/div&gt;&lt;div&gt;et_statutMat&lt;/div&gt;" style="align=left;strokeColor=none;fillColor=none;spacingLeft=4;fontSize=12;verticalAlign=top;resizable=0;rotatable=0;part=1;html=1;" vertex="1" parent="CQKy-OLcfSeAjiSryRfV-1">
          <mxGeometry y="50" width="160" height="130" as="geometry" />
        </mxCell>
        <mxCell id="CQKy-OLcfSeAjiSryRfV-3" value="conjoint" style="swimlane;childLayout=stackLayout;horizontal=1;startSize=50;horizontalStack=0;rounded=1;fontSize=14;fontStyle=0;strokeWidth=2;resizeParent=0;resizeLast=1;shadow=0;dashed=0;align=center;arcSize=4;whiteSpace=wrap;html=1;" vertex="1" parent="1">
          <mxGeometry x="220" y="70" width="160" height="200" as="geometry" />
        </mxCell>
        <mxCell id="CQKy-OLcfSeAjiSryRfV-4" value="&lt;u&gt;id_conjoint&lt;/u&gt;&lt;br&gt;#IUC&lt;br&gt;conj_nom&lt;br&gt;conj_prenom&lt;br&gt;conj_dateN&lt;br&gt;conj_pays&lt;br&gt;conj_numPassport&lt;br&gt;conj_numTele&lt;br&gt;conj_statutMat" style="align=left;strokeColor=none;fillColor=none;spacingLeft=4;fontSize=12;verticalAlign=top;resizable=0;rotatable=0;part=1;html=1;" vertex="1" parent="CQKy-OLcfSeAjiSryRfV-3">
          <mxGeometry y="50" width="160" height="150" as="geometry" />
        </mxCell>
        <mxCell id="CQKy-OLcfSeAjiSryRfV-8" value="Testlangue" style="swimlane;childLayout=stackLayout;horizontal=1;startSize=50;horizontalStack=0;rounded=1;fontSize=14;fontStyle=0;strokeWidth=2;resizeParent=0;resizeLast=1;shadow=0;dashed=0;align=center;arcSize=4;whiteSpace=wrap;html=1;" vertex="1" parent="1">
          <mxGeometry x="40" y="320" width="170" height="190" as="geometry" />
        </mxCell>
        <mxCell id="CQKy-OLcfSeAjiSryRfV-9" value="&lt;u&gt;#IUC&lt;/u&gt;&lt;br&gt;&lt;u&gt;id_test&lt;/u&gt;&lt;br&gt;test_nom&lt;br&gt;test_expEcrit&lt;br&gt;test_expOral&lt;br&gt;test_lecture&lt;br&gt;test_Ecoute&lt;br&gt;test_date&lt;div&gt;&lt;br&gt;&lt;/div&gt;" style="align=left;strokeColor=none;fillColor=none;spacingLeft=4;fontSize=12;verticalAlign=top;resizable=0;rotatable=0;part=1;html=1;" vertex="1" parent="CQKy-OLcfSeAjiSryRfV-8">
          <mxGeometry y="50" width="170" height="140" as="geometry" />
        </mxCell>
        <mxCell id="CQKy-OLcfSeAjiSryRfV-10" value="Agent" style="swimlane;childLayout=stackLayout;horizontal=1;startSize=50;horizontalStack=0;rounded=1;fontSize=14;fontStyle=0;strokeWidth=2;resizeParent=0;resizeLast=1;shadow=0;dashed=0;align=center;arcSize=4;whiteSpace=wrap;html=1;" vertex="1" parent="1">
          <mxGeometry x="240" y="320" width="160" height="120" as="geometry" />
        </mxCell>
        <mxCell id="CQKy-OLcfSeAjiSryRfV-11" value="&lt;u&gt;id_agent&lt;/u&gt;&lt;br&gt;&lt;u&gt;#IUC&lt;br&gt;&lt;/u&gt;agent_code&lt;br&gt;agent_commentaire" style="align=left;strokeColor=none;fillColor=none;spacingLeft=4;fontSize=12;verticalAlign=top;resizable=0;rotatable=0;part=1;html=1;" vertex="1" parent="CQKy-OLcfSeAjiSryRfV-10">
          <mxGeometry y="50" width="160" height="70" as="geometry" />
        </mxCell>
      </root>
    </mxGraphModel>
  </diagram>
  <diagram id="WURc6zUagyRzLN8JzneX" name="modele_entite_association">
    <mxGraphModel dx="665" dy="614" grid="1" gridSize="10" guides="1" tooltips="1" connect="1" arrows="1" fold="1" page="1" pageScale="1" pageWidth="827" pageHeight="1169" math="0" shadow="0">
      <root>
        <mxCell id="0" />
        <mxCell id="1" parent="0" />
        <mxCell id="ya0eUJ7--AO_Hj5XuaW3-1" value="etudiant" style="whiteSpace=wrap;html=1;align=center;" vertex="1" parent="1">
          <mxGeometry x="40" y="160" width="100" height="40" as="geometry" />
        </mxCell>
        <mxCell id="Zxy2rGIzH0aQUwWGbSMj-2" value="conjoint" style="whiteSpace=wrap;html=1;align=center;" vertex="1" parent="1">
          <mxGeometry x="40" y="360" width="100" height="40" as="geometry" />
        </mxCell>
        <mxCell id="XVQOEvFu36x3oepS5fNb-1" value="agent" style="whiteSpace=wrap;html=1;align=center;" vertex="1" parent="1">
          <mxGeometry x="500" y="160" width="100" height="40" as="geometry" />
        </mxCell>
        <mxCell id="wpWd3Dx_EDtGDYUGjGfQ-1" value="testlangue" style="whiteSpace=wrap;html=1;align=center;" vertex="1" parent="1">
          <mxGeometry x="380" y="70" width="100" height="40" as="geometry" />
        </mxCell>
        <mxCell id="-bsccwzCPoYcerLCCiRT-2" value="est_suivie" style="shape=rhombus;perimeter=rhombusPerimeter;whiteSpace=wrap;html=1;align=center;" vertex="1" parent="1">
          <mxGeometry x="260" y="160" width="120" height="60" as="geometry" />
        </mxCell>
        <mxCell id="-bsccwzCPoYcerLCCiRT-4" value="" style="endArrow=none;html=1;rounded=0;entryX=0;entryY=0.5;entryDx=0;entryDy=0;" edge="1" parent="1" target="-bsccwzCPoYcerLCCiRT-2">
          <mxGeometry width="50" height="50" relative="1" as="geometry">
            <mxPoint x="140" y="190" as="sourcePoint" />
            <mxPoint x="190" y="140" as="targetPoint" />
          </mxGeometry>
        </mxCell>
        <mxCell id="-bsccwzCPoYcerLCCiRT-6" value="" style="endArrow=none;html=1;rounded=0;entryX=1;entryY=0.5;entryDx=0;entryDy=0;exitX=0;exitY=0.75;exitDx=0;exitDy=0;" edge="1" parent="1" source="XVQOEvFu36x3oepS5fNb-1" target="-bsccwzCPoYcerLCCiRT-2">
          <mxGeometry width="50" height="50" relative="1" as="geometry">
            <mxPoint x="320" y="340" as="sourcePoint" />
            <mxPoint x="370" y="290" as="targetPoint" />
          </mxGeometry>
        </mxCell>
        <mxCell id="-bsccwzCPoYcerLCCiRT-7" value="epouser" style="shape=rhombus;perimeter=rhombusPerimeter;whiteSpace=wrap;html=1;align=center;" vertex="1" parent="1">
          <mxGeometry x="30" y="270" width="120" height="40" as="geometry" />
        </mxCell>
        <mxCell id="-bsccwzCPoYcerLCCiRT-8" value="" style="endArrow=none;html=1;rounded=0;entryX=0.5;entryY=1;entryDx=0;entryDy=0;exitX=0.5;exitY=0;exitDx=0;exitDy=0;exitPerimeter=0;" edge="1" parent="1" source="-bsccwzCPoYcerLCCiRT-7" target="ya0eUJ7--AO_Hj5XuaW3-1">
          <mxGeometry width="50" height="50" relative="1" as="geometry">
            <mxPoint x="90" y="260" as="sourcePoint" />
            <mxPoint x="370" y="290" as="targetPoint" />
            <Array as="points">
              <mxPoint x="90" y="240" />
            </Array>
          </mxGeometry>
        </mxCell>
        <mxCell id="-bsccwzCPoYcerLCCiRT-9" value="" style="endArrow=none;html=1;rounded=0;entryX=0.5;entryY=1;entryDx=0;entryDy=0;exitX=0.5;exitY=0;exitDx=0;exitDy=0;" edge="1" parent="1" source="Zxy2rGIzH0aQUwWGbSMj-2" target="-bsccwzCPoYcerLCCiRT-7">
          <mxGeometry width="50" height="50" relative="1" as="geometry">
            <mxPoint x="320" y="340" as="sourcePoint" />
            <mxPoint x="370" y="290" as="targetPoint" />
          </mxGeometry>
        </mxCell>
        <mxCell id="-bsccwzCPoYcerLCCiRT-11" value="possession" style="shape=rhombus;perimeter=rhombusPerimeter;whiteSpace=wrap;html=1;align=center;" vertex="1" parent="1">
          <mxGeometry x="170" y="70" width="120" height="40" as="geometry" />
        </mxCell>
        <mxCell id="-bsccwzCPoYcerLCCiRT-12" value="" style="endArrow=none;html=1;rounded=0;entryX=0;entryY=0.5;entryDx=0;entryDy=0;exitX=1;exitY=0;exitDx=0;exitDy=0;" edge="1" parent="1" source="ya0eUJ7--AO_Hj5XuaW3-1" target="-bsccwzCPoYcerLCCiRT-11">
          <mxGeometry width="50" height="50" relative="1" as="geometry">
            <mxPoint x="320" y="340" as="sourcePoint" />
            <mxPoint x="370" y="290" as="targetPoint" />
          </mxGeometry>
        </mxCell>
        <mxCell id="-bsccwzCPoYcerLCCiRT-13" value="" style="endArrow=none;html=1;rounded=0;entryX=1;entryY=0.5;entryDx=0;entryDy=0;exitX=0;exitY=0.5;exitDx=0;exitDy=0;" edge="1" parent="1" source="wpWd3Dx_EDtGDYUGjGfQ-1" target="-bsccwzCPoYcerLCCiRT-11">
          <mxGeometry width="50" height="50" relative="1" as="geometry">
            <mxPoint x="320" y="340" as="sourcePoint" />
            <mxPoint x="370" y="290" as="targetPoint" />
          </mxGeometry>
        </mxCell>
        <mxCell id="-bsccwzCPoYcerLCCiRT-14" value="1,1" style="text;html=1;align=center;verticalAlign=middle;resizable=0;points=[];autosize=1;strokeColor=none;fillColor=none;" vertex="1" parent="1">
          <mxGeometry x="460" y="165" width="40" height="30" as="geometry" />
        </mxCell>
        <mxCell id="-bsccwzCPoYcerLCCiRT-15" value="1,10" style="text;html=1;align=center;verticalAlign=middle;resizable=0;points=[];autosize=1;strokeColor=none;fillColor=none;" vertex="1" parent="1">
          <mxGeometry x="140" y="165" width="50" height="30" as="geometry" />
        </mxCell>
        <mxCell id="-bsccwzCPoYcerLCCiRT-16" value="1,1" style="text;html=1;align=center;verticalAlign=middle;resizable=0;points=[];autosize=1;strokeColor=none;fillColor=none;" vertex="1" parent="1">
          <mxGeometry x="80" y="198" width="40" height="30" as="geometry" />
        </mxCell>
        <mxCell id="-bsccwzCPoYcerLCCiRT-17" value="0,1" style="text;html=1;align=center;verticalAlign=middle;resizable=0;points=[];autosize=1;strokeColor=none;fillColor=none;" vertex="1" parent="1">
          <mxGeometry x="80" y="338" width="40" height="30" as="geometry" />
        </mxCell>
        <mxCell id="-bsccwzCPoYcerLCCiRT-18" value="1,1" style="text;html=1;align=center;verticalAlign=middle;resizable=0;points=[];autosize=1;strokeColor=none;fillColor=none;" vertex="1" parent="1">
          <mxGeometry x="110" y="128" width="40" height="30" as="geometry" />
        </mxCell>
        <mxCell id="-bsccwzCPoYcerLCCiRT-19" value="1,1" style="text;html=1;align=center;verticalAlign=middle;resizable=0;points=[];autosize=1;strokeColor=none;fillColor=none;" vertex="1" parent="1">
          <mxGeometry x="340" y="68" width="40" height="30" as="geometry" />
        </mxCell>
      </root>
    </mxGraphModel>
  </diagram>
</mxfile>
